<svg width="281" height="36" viewBox="0 0 281 36" fill="none" xmlns="http://www.w3.org/2000/svg">
<path d="M39.2932 6.15852C39.4164 5.17316 39.6011 4.37255 39.8475 3.69511C40.0938 3.01767 40.4633 2.40182 40.956 1.84756C41.4487 1.29329 42.0645 0.862195 42.8035 0.492683C43.5426 0.184757 44.4048 0 45.267 0C46.4987 0 47.5456 0.30793 48.4078 0.985367C49.1468 1.60122 49.5163 2.34024 49.5163 3.20243C49.5163 3.75669 49.3316 4.18779 48.9621 4.5573C48.5926 4.92681 48.1615 5.11157 47.5456 5.11157C46.9913 5.11157 46.4987 4.92681 46.1291 4.5573C45.7596 4.18779 45.5749 3.7567 45.5749 3.14085C45.5749 2.64817 45.698 2.21707 46.006 1.90914C46.2523 1.60122 46.6218 1.35488 47.1145 1.29329C47.0529 1.04695 46.8682 0.862191 46.5602 0.73902C46.2523 0.61585 45.8212 0.492683 45.3285 0.492683C44.2816 0.492683 43.481 0.923778 42.9883 1.84756C42.742 2.34024 42.5572 3.07926 42.434 4.00304C42.3724 4.9884 42.3109 6.52803 42.3109 8.68352V9.60729H46.1907V10.3463H42.3109V24.5109C42.3109 25.6194 42.6188 26.42 43.2346 26.8511C43.8505 27.2822 44.8359 27.467 46.1291 27.467V28.206C43.1731 28.0828 41.3255 28.0828 40.5865 28.0828C39.9706 28.0828 38.5542 28.1444 36.3371 28.206V27.467C37.0145 27.467 37.5688 27.4054 37.9383 27.2207C38.3078 27.0975 38.6158 26.7896 38.8005 26.42C38.9853 26.0505 39.0469 25.4963 39.0469 24.8188V10.2847H36.1523V9.5457H39.0469C39.1084 8.37559 39.17 7.14388 39.2932 6.15852Z" fill="white"/>
<path d="M55.4876 11.701C55.9803 11.0236 56.5962 10.4077 57.3352 9.97663C58.0126 9.54553 58.8132 9.29919 59.5523 9.29919C60.1681 9.29919 60.784 9.42236 61.2766 9.6687C61.7693 9.91504 62.1388 10.2845 62.4468 10.7156C62.7547 11.1467 62.8779 11.6394 62.8779 12.1321C62.8779 12.748 62.6931 13.3022 62.3236 13.7333C61.9541 14.1644 61.4614 14.4108 60.8455 14.4108C60.2913 14.4108 59.8602 14.226 59.4907 13.9181C59.1212 13.6102 58.9364 13.1175 58.9364 12.5632C58.9364 11.7626 59.3675 11.1467 60.1681 10.5925C59.9833 10.3461 59.737 10.223 59.4291 10.223C58.5053 10.223 57.6431 10.5925 56.8425 11.3315C56.1035 12.0705 55.4876 12.9327 55.0565 14.0413C54.6254 15.0882 54.3791 16.1351 54.3791 17.0589V24.7571C54.3791 25.8656 54.687 26.6662 55.3029 27.0973C55.9187 27.5284 56.9041 27.7132 58.1974 27.7132V28.4522C55.2413 28.329 53.3937 28.329 52.6547 28.329C52.0389 28.329 50.6224 28.3906 48.4053 28.4522V27.7132C49.0828 27.7132 49.637 27.6516 50.0065 27.4668C50.3761 27.3437 50.684 27.0357 50.8687 26.6662C51.0535 26.2967 51.1151 25.7424 51.1151 25.065V13.7333C51.1151 12.6248 50.9303 11.8242 50.4992 11.2699C50.0681 10.7772 49.3907 10.5309 48.3438 10.5309V9.79187C49.0828 9.85345 49.8218 9.91505 50.5608 9.91505C52.1004 9.91505 53.3321 9.73029 54.3175 9.42236V13.9181C54.5639 13.1175 54.995 12.3784 55.4876 11.701Z" fill="white"/>
<path d="M70.6987 26.6048C70.8835 26.9743 71.1914 27.2207 71.5609 27.4054C71.9304 27.5286 72.4847 27.6518 73.1622 27.6518V28.3908C70.9451 28.2676 69.467 28.2676 68.7896 28.2676C68.1122 28.2676 66.6341 28.3292 64.4171 28.3908V27.6518C65.0945 27.6518 65.6488 27.5902 66.0183 27.4054C66.3878 27.2823 66.6957 26.9743 66.8805 26.6048C67.0652 26.2353 67.1268 25.681 67.1268 25.0036V13.6719C67.1268 12.5634 66.942 11.7628 66.511 11.2085C66.0799 10.7158 65.4024 10.4695 64.3555 10.4695V9.73048C65.0945 9.79206 65.8335 9.85365 66.5725 9.85365C68.1122 9.85365 69.3439 9.66889 70.3292 9.36096V25.0036C70.3908 25.681 70.514 26.2353 70.6987 26.6048Z" fill="white"/>
<path d="M69.7135 1.04689C70.083 1.23164 70.3293 1.53957 70.5757 1.90908C70.7604 2.2786 70.8836 2.6481 70.8836 3.0792C70.8836 3.5103 70.7604 3.8798 70.5757 4.24931C70.3909 4.61883 70.083 4.86517 69.7135 5.11151C69.344 5.29627 68.9745 5.41944 68.5434 5.41944C68.1123 5.41944 67.7428 5.29627 67.3732 5.11151C67.0037 4.92676 66.7574 4.61883 66.5111 4.24931C66.3263 3.8798 66.2031 3.5103 66.2031 3.0792C66.2031 2.6481 66.3263 2.2786 66.5111 1.90908C66.6958 1.53957 67.0037 1.29323 67.3732 1.04689C67.7428 0.862131 68.1123 0.738961 68.5434 0.738961C68.9745 0.677375 69.344 0.800546 69.7135 1.04689Z" fill="#C6AC8E"/>
<path d="M92.3156 27.0977C92.6851 27.4056 93.1162 27.5903 93.6089 27.6519V28.391C92.1308 28.2678 91.1455 28.2678 90.6528 28.2678C89.9753 28.2678 88.682 28.3294 86.6497 28.391V27.6519C87.0192 27.6519 87.2656 27.5903 87.4503 27.4672C87.6351 27.344 87.7583 27.1592 87.7583 26.9745C87.7583 26.7897 87.6967 26.605 87.5735 26.4202L83.4473 20.3233C83.0162 19.7074 82.5851 19.2763 82.2156 19.0916C81.8461 18.9068 81.3534 18.7837 80.676 18.7221V25.0038C80.676 25.6812 80.7376 26.1739 80.9223 26.605C81.1071 26.9745 81.3534 27.2208 81.6613 27.4056C81.9693 27.5288 82.4619 27.6519 83.0778 27.6519V28.391C81.0455 28.2678 79.6906 28.2678 79.0748 28.2678C78.3973 28.2678 76.9193 28.3294 74.7022 28.391V27.6519C75.3797 27.6519 75.9339 27.5903 76.3034 27.4056C76.6729 27.2824 76.9809 26.9745 77.1656 26.605C77.3504 26.2355 77.412 25.6812 77.412 25.0038V4.31114C77.412 3.20261 77.2272 2.402 76.7961 1.90932C76.365 1.41664 75.6876 1.17029 74.6406 1.17029V0.431273C75.3796 0.492858 76.1803 0.554442 76.8577 0.554442C78.3973 0.554442 79.6906 0.369694 80.6144 0.0617676V18.0446C81.2918 17.9215 81.9077 17.7983 82.4004 17.552C82.893 17.3056 83.3241 16.9977 83.7552 16.5666L86.465 13.7953C87.204 12.9946 87.6351 12.3172 87.6351 11.8245C87.6351 11.3934 87.3888 11.0855 86.8961 10.9008C86.4034 10.716 85.7875 10.5928 84.9253 10.5928V9.85381C86.5881 9.97698 87.943 9.97698 88.99 9.97698C90.0985 9.97698 91.1455 9.91539 92.1308 9.85381V10.5928C90.9607 10.716 89.8522 11.2703 88.8668 12.3172L84.4943 16.9361L91.0223 25.866C91.515 26.3586 91.9461 26.7897 92.3156 27.0977Z" fill="white"/>
<path d="M99.8277 26.605C100.012 26.9745 100.32 27.2208 100.69 27.4056C101.059 27.5288 101.614 27.6519 102.291 27.6519V28.391C100.074 28.2678 98.5959 28.2678 97.9185 28.2678C97.2411 28.2678 95.763 28.3294 93.546 28.391V27.6519C94.2234 27.6519 94.7777 27.5903 95.1472 27.4056C95.5167 27.2824 95.8246 26.9745 96.0094 26.605C96.1941 26.2355 96.2557 25.6812 96.2557 25.0038V4.31114C96.2557 3.20261 96.071 2.402 95.6399 1.90932C95.2088 1.41664 94.5313 1.17029 93.4844 1.17029V0.431273C94.2234 0.492858 94.9624 0.554442 95.7014 0.554442C97.2411 0.554442 98.5344 0.369694 99.4581 0.0617676V25.0653C99.5813 25.6812 99.7045 26.2355 99.8277 26.605Z" fill="white"/>
<path d="M118.303 9.85364C119.35 9.85364 120.274 9.79205 121.075 9.73047V10.4695C120.582 10.5311 120.151 10.7158 119.782 11.1469C119.412 11.5164 119.042 12.1323 118.735 13.0561L112.822 28.5755L111.591 31.7164C111.16 32.8865 110.605 33.7487 110.051 34.2414C109.374 34.8572 108.45 35.1652 107.218 35.1652C106.479 35.1652 105.925 34.9804 105.432 34.6109C105.001 34.2414 104.755 33.6871 104.755 33.0097C104.755 32.4554 104.939 31.9627 105.247 31.5932C105.617 31.2237 106.048 31.1005 106.664 31.1005C107.218 31.1005 107.649 31.2237 107.957 31.5316C108.327 31.8395 108.45 32.2707 108.45 32.7633C108.45 33.5024 108.142 33.995 107.464 34.3645C107.526 34.3645 107.588 34.4261 107.649 34.4261C109.004 34.4261 109.989 33.5023 110.728 31.5932L112.022 28.2676L105.432 12.5018C105.001 11.6396 104.632 11.1469 104.2 10.839C103.769 10.5927 103.4 10.4695 102.969 10.4695V9.73047C104.077 9.85364 105.309 9.97681 106.541 9.97681C107.588 9.97681 109.127 9.91522 111.221 9.73047V10.4695C110.605 10.4695 110.174 10.4695 109.866 10.5311C109.558 10.5927 109.25 10.6542 109.066 10.839C108.819 11.0238 108.758 11.3317 108.758 11.7012C108.758 12.1323 108.881 12.7481 109.189 13.4872L113.561 24.3262L117.564 13.8567C117.811 13.1792 117.934 12.625 117.934 12.1939C117.934 11.6396 117.749 11.2085 117.318 10.9622C116.887 10.7158 116.21 10.5311 115.286 10.4695V9.73047C116.517 9.79205 117.503 9.85364 118.303 9.85364Z" fill="white"/>
<path d="M15.4567 22.5401L4.125 3.01758H30.4219V3.94136H5.72621L15.3951 20.6309L22.3542 8.56024L23.1548 8.99135L15.4567 22.5401Z" fill="#C6AC8E"/>
<path d="M15.4579 30.4231L0 3.69513L0.800607 3.26404L15.4579 28.514L26.5432 9.2378H11.8244V8.31402H28.206L15.4579 30.4231Z" fill="white"/>
<path d="M135.304 9.98104H130.724V25.3199H131.761V19.6813H135.304C138.286 19.6813 140.576 18.061 140.576 14.842C140.576 11.6014 138.286 9.98104 135.304 9.98104ZM135.304 18.6875H131.761V10.9748H135.304C137.746 10.9748 139.539 12.1847 139.539 14.842C139.539 17.4993 137.746 18.6875 135.304 18.6875ZM152.063 25.3199H153.143L147.612 9.98104H146.467L140.936 25.3199H142.017L143.529 21.1288H150.55L152.063 25.3199ZM143.896 20.135L147.05 11.3853L150.205 20.135H143.896ZM163.925 25.3199H165.134L161.419 19.7461C163.449 19.2924 165.091 17.5425 165.091 14.9284C165.091 11.8606 162.844 9.98104 160.403 9.98104H155.24V25.3199H156.277V19.8541H160.317L163.925 25.3199ZM156.277 10.9748H160.403C162.304 10.9748 164.054 12.4439 164.054 14.9284C164.054 17.3912 162.304 18.8603 160.403 18.8603H156.277V10.9748ZM175.127 9.98104H166.291V10.9748H170.18V25.3199H171.217V10.9748H175.127V9.98104ZM187.833 9.98104V23.5484L178.219 9.98104H177.182V25.3199H178.219V11.7526L187.833 25.3199H188.87V9.98104H187.833ZM199.455 10.9748V9.98104H191.612V25.3199H199.455V24.3262H192.649V17.7801H197.856V16.7863H192.649V10.9748H199.455ZM210.888 25.3199H212.098L208.382 19.7461C210.413 19.2924 212.055 17.5425 212.055 14.9284C212.055 11.8606 209.808 9.98104 207.367 9.98104H202.203V25.3199H203.24V19.8541H207.28L210.888 25.3199ZM203.24 10.9748H207.367C209.268 10.9748 211.018 12.4439 211.018 14.9284C211.018 17.3912 209.268 18.8603 207.367 18.8603H203.24V10.9748ZM230.9 9.98104V16.9808H221.87V9.98104H220.833V25.3199H221.87V17.9746H230.9V25.3199H231.959V9.98104H230.9ZM242.158 25.536C246.522 25.536 249.849 21.9713 249.849 17.6505C249.849 13.3297 246.522 9.765 242.158 9.765C237.794 9.765 234.489 13.3297 234.489 17.6505C234.489 21.9713 237.794 25.536 242.158 25.536ZM242.158 24.5422C238.464 24.5422 235.526 21.4096 235.526 17.6505C235.526 13.8914 238.464 10.7588 242.158 10.7588C245.874 10.7588 248.791 13.8914 248.791 17.6505C248.791 21.4096 245.874 24.5422 242.158 24.5422ZM266.332 9.98104L259.894 20.5238L253.456 9.98104H252.419V25.3199H253.456V11.9038L259.57 21.9281H260.218L266.332 11.9038V25.3199H267.391V9.98104H266.332ZM278.044 10.9748V9.98104H270.201V25.3199H278.044V24.3262H271.238V17.7801H276.445V16.7863H271.238V10.9748H278.044Z" fill="white"/>
</svg>
