<svg width="155" height="11" viewBox="0 0 155 11" fill="none" xmlns="http://www.w3.org/2000/svg">
<path d="M4.24125 4.2V5.01H7.08125C6.86125 6.34 5.86125 7.29 4.43125 7.29C2.89125 7.29 1.79125 6.02 1.79125 4.45C1.79125 2.88 2.93125 1.61 4.52125 1.61C5.52125 1.61 6.22125 2.14 6.67125 2.78L7.33125 2.28C6.69125 1.4 5.77125 0.8 4.52125 0.8C2.40125 0.8 0.93125 2.46 0.93125 4.45C0.93125 6.44 2.40125 8.1 4.43125 8.1C6.55125 8.1 7.98125 6.54 7.98125 4.2H4.24125ZM13.7256 5.52C13.7256 4.09 12.7456 2.84 11.1956 2.84C9.69563 2.84 8.66563 4.02 8.66563 5.44C8.66563 6.97 9.74563 8.1 11.2756 8.1C12.6056 8.1 13.3856 7.22 13.5856 6.53L12.8256 6.43C12.6056 6.88 12.1056 7.33 11.2756 7.33C10.2356 7.33 9.55563 6.66 9.52563 5.74H13.7256V5.52ZM11.1956 3.61C12.1856 3.61 12.8156 4.33 12.8656 5.12H9.52563C9.55563 4.29 10.2456 3.61 11.1956 3.61ZM17.0403 2.94H15.9903V1.44H15.1403V2.94H14.4203V3.75H15.1403V8H15.9903V3.75H17.0403V2.94ZM24.5901 1.71V0.9H20.7801V8H21.6401V4.75H24.1201V3.94H21.6401V1.71H24.5901ZM29.4476 8H30.4276L28.8276 5.5C29.6976 5.2 30.3776 4.41 30.3776 3.26C30.3776 1.79 29.2676 0.9 28.0576 0.9H25.5276V8H26.3776V5.62H27.9376L29.4476 8ZM26.3776 1.71H28.0576C28.8376 1.71 29.5276 2.29 29.5276 3.26C29.5276 4.23 28.8376 4.81 28.0576 4.81H26.3776V1.71ZM35.3627 1.71V0.9H31.5627V8H35.3627V7.19H32.4127V4.73H34.6927V3.92H32.4127V1.71H35.3627ZM40.2553 1.71V0.9H36.4553V8H40.2553V7.19H37.3053V4.73H39.5853V3.92H37.3053V1.71H40.2553ZM44.2516 5.46C44.2516 6.92 45.3616 8.1 46.8116 8.1C47.7616 8.1 48.5316 7.56 48.8516 6.85L48.8916 8H49.7116V0.499999H48.8516V4.09C48.5316 3.38 47.7616 2.84 46.8116 2.84C45.3616 2.84 44.2516 4.02 44.2516 5.46ZM45.1116 5.46C45.1116 4.48 45.9116 3.65 46.9416 3.65C47.9816 3.65 48.7616 4.48 48.7616 5.46C48.7616 6.46 47.9816 7.29 46.9416 7.29C45.9116 7.29 45.1116 6.46 45.1116 5.46ZM55.9229 5.52C55.9229 4.09 54.9429 2.84 53.3929 2.84C51.8929 2.84 50.8629 4.02 50.8629 5.44C50.8629 6.97 51.9429 8.1 53.4729 8.1C54.8029 8.1 55.5829 7.22 55.7829 6.53L55.0229 6.43C54.8029 6.88 54.3029 7.33 53.4729 7.33C52.4329 7.33 51.7529 6.66 51.7229 5.74H55.9229V5.52ZM53.3929 3.61C54.3829 3.61 55.0129 4.33 55.0629 5.12H51.7229C51.7529 4.29 52.4429 3.61 53.3929 3.61ZM57.6702 0.499999H56.8102V8H57.6702V0.499999ZM59.2663 2.1C59.5463 2.1 59.7563 1.88 59.7563 1.61C59.7563 1.33 59.5463 1.12 59.2663 1.12C58.9963 1.12 58.7763 1.33 58.7763 1.61C58.7763 1.88 58.9963 2.1 59.2663 2.1ZM59.6963 2.94H58.8363V8H59.6963V2.94ZM64.9462 2.94L63.2662 7.11L61.5862 2.94H60.6262L62.7762 8H63.7562L65.9062 2.94H64.9462ZM71.3721 5.52C71.3721 4.09 70.3921 2.84 68.8421 2.84C67.3421 2.84 66.3121 4.02 66.3121 5.44C66.3121 6.97 67.3921 8.1 68.9221 8.1C70.2521 8.1 71.0321 7.22 71.2321 6.53L70.4721 6.43C70.2521 6.88 69.7521 7.33 68.9221 7.33C67.8821 7.33 67.2021 6.66 67.1721 5.74H71.3721V5.52ZM68.8421 3.61C69.8321 3.61 70.4621 4.33 70.5121 5.12H67.1721C67.2021 4.29 67.8921 3.61 68.8421 3.61ZM74.3868 2.84C73.9168 2.84 73.5268 3.15 73.2168 3.58L73.1768 2.94H72.3668V8H73.2268V5.48C73.2268 4.53 73.5568 3.65 74.3368 3.65C74.5768 3.65 74.7768 3.74 74.8768 3.81L75.0268 3.06C74.9168 2.96 74.6968 2.84 74.3868 2.84ZM75.675 2.94L77.875 7.99L76.875 10.3H77.785L80.975 2.94H80.055L78.335 6.93L76.595 2.94H75.675ZM90.3833 5.46C90.3833 4.02 89.2733 2.84 87.8233 2.84C86.8733 2.84 86.0933 3.38 85.7833 4.09V0.499999H84.9233V8H85.7433L85.7833 6.85C86.0933 7.56 86.8733 8.1 87.8233 8.1C89.2733 8.1 90.3833 6.92 90.3833 5.46ZM89.5233 5.46C89.5233 6.46 88.7233 7.29 87.6833 7.29C86.6533 7.29 85.8733 6.46 85.8733 5.46C85.8733 4.48 86.6533 3.65 87.6833 3.65C88.7233 3.65 89.5233 4.48 89.5233 5.46ZM90.7922 2.94L92.9922 7.99L91.9922 10.3H92.9022L96.0922 2.94H95.1722L93.4522 6.93L91.7122 2.94H90.7922ZM105.07 3.02C105.07 1.68 104.07 0.8 102.75 0.8C101.21 0.8 100.13 1.82 100.13 3.1H100.99C100.99 2.25 101.69 1.61 102.74 1.61C103.59 1.61 104.21 2.19 104.21 2.99C104.21 4.86 100.13 5.11 100.13 7.19V8H105.07V7.19H101C101 5.73 105.07 5.47 105.07 3.02ZM111.41 5.73H110.42V0.9H109.56L105.8 5.73V6.54H109.56V8H110.42V6.54H111.41V5.73ZM106.88 5.73L109.56 2.21V5.73H106.88ZM116.105 6.27H115.245C115.245 7.52 116.215 8.1 117.095 8.1C118.065 8.1 118.865 7.48 118.865 6.04L118.875 0.9H118.015V6.04C118.015 7.04 117.575 7.29 117.055 7.29C116.465 7.29 116.105 6.86 116.105 6.27ZM123.872 2.94V5.52H123.862C123.862 6.24 123.382 7.29 122.182 7.29C121.402 7.29 120.862 6.81 120.862 5.54V2.94H120.002V5.9C120.002 7.33 120.712 8.1 121.882 8.1C122.762 8.1 123.412 7.66 123.882 7.11L123.912 8H124.722V2.94H123.872ZM126.83 0.499999H125.97V8H126.83V0.499999ZM128.057 7.43L127.607 9.34H128.297L128.977 7.43H128.057ZM142.074 0.9L140.174 6.87L138.274 0.9H137.394L135.494 6.87L133.594 0.9H132.714L134.984 8H136.004L137.834 2.27L139.664 8H140.684L142.954 0.9H142.074ZM147.798 5.52C147.798 4.09 146.818 2.84 145.268 2.84C143.768 2.84 142.738 4.02 142.738 5.44C142.738 6.97 143.818 8.1 145.348 8.1C146.678 8.1 147.458 7.22 147.658 6.53L146.898 6.43C146.678 6.88 146.178 7.33 145.348 7.33C144.308 7.33 143.628 6.66 143.598 5.74H147.798V5.52ZM145.268 3.61C146.258 3.61 146.888 4.33 146.938 5.12H143.598C143.628 4.29 144.318 3.61 145.268 3.61ZM148.636 5.46C148.636 6.92 149.746 8.1 151.196 8.1C152.146 8.1 152.916 7.56 153.236 6.85L153.276 8H154.096V0.499999H153.236V4.09C152.916 3.38 152.146 2.84 151.196 2.84C149.746 2.84 148.636 4.02 148.636 5.46ZM149.496 5.46C149.496 4.48 150.296 3.65 151.326 3.65C152.366 3.65 153.146 4.48 153.146 5.46C153.146 6.46 152.366 7.29 151.326 7.29C150.296 7.29 149.496 6.46 149.496 5.46Z" fill="#10A728"/>
</svg>
