<svg width="97" height="40" viewBox="0 0 97 40" fill="none" xmlns="http://www.w3.org/2000/svg">
<path d="M13.8612 1.20367C14.6855 1.86527 15.1518 2.76549 15.1518 3.75247C15.1518 5.02145 14.2516 5.92167 12.961 5.92167C11.7354 5.92167 10.7158 5.09737 10.7158 3.70909C10.7158 2.54857 11.4208 1.8002 12.4403 1.60497C12.2777 1.12774 11.5727 0.704751 10.4121 0.704751C9.14317 0.704751 8.24295 1.32297 7.74403 2.23403C7.10412 3.38371 6.99566 5.36853 6.99566 10.0431V11.1061H11.41V11.9303H6.98482V28.0149C6.98482 30.6831 8.63341 31.388 11.3449 31.388V32.2557C10.0759 32.2123 7.5705 32.093 5.02169 32.093C3.13449 32.093 1.12798 32.2123 0.16269 32.2557V31.388C2.4295 31.388 3.29718 30.7264 3.29718 28.4379V11.9303H0V11.1061H3.29718C3.29718 6.26874 3.83948 3.99108 5.4013 2.14727C6.46421 0.86744 8.27549 0.0756836 10.282 0.0756836C11.8113 0.0756836 12.9935 0.542061 13.8612 1.20367Z" fill="#22333B"/>
<path d="M30.3244 13.742C30.3244 15.152 29.4242 16.3342 27.9708 16.3342C26.8212 16.3342 25.7799 15.5749 25.7799 14.2084C25.7799 13.1888 26.4416 12.4405 27.1899 11.9741C26.9838 11.6921 26.691 11.5728 26.3222 11.5728C22.8624 11.5728 20.5956 16.2474 20.5956 19.306V28.0261C20.5956 30.6943 22.2442 31.3992 24.9557 31.3992V32.2669C23.6867 32.2235 21.1812 32.1042 18.6324 32.1042C16.7452 32.1042 14.717 32.2235 13.7734 32.2669V31.3992C16.0402 31.3992 16.9079 30.7376 16.9079 28.4491V15.5641C16.9079 13.0912 16.1596 11.9307 13.7734 11.9307V11.063C14.6411 11.1389 15.4979 11.1823 16.3222 11.1823C17.9275 11.1823 19.4134 11.0196 20.5956 10.6183V15.7593C21.4632 13.3732 23.6867 10.499 26.5609 10.499C28.7951 10.499 30.3244 11.9741 30.3244 13.742Z" fill="#22333B"/>
<path d="M38.9042 28.4381C38.9042 30.7266 39.7718 31.3882 42.0386 31.3882V32.2559C41.095 32.2125 38.9475 32.0932 37.0603 32.0932C35.1731 32.0932 33.0256 32.2125 32.082 32.2559V31.3882C34.3488 31.3882 35.2165 30.7266 35.2165 28.4381V15.5639C35.2165 13.091 34.4681 11.9305 32.082 11.9305V11.0628C32.9497 11.1388 33.8065 11.1822 34.6308 11.1822C36.236 11.1822 37.7219 11.0195 38.9042 10.6182V28.4381Z" fill="#22333B"/>
<path d="M62.396 29.2408C63.3396 30.5315 64.0446 31.2256 65.2702 31.3883V32.256C64.652 32.2126 63.1769 32.0933 61.9405 32.0933C60.216 32.0933 58.242 32.2126 57.3851 32.256V31.3883C58.1661 31.3883 58.6541 31.0629 58.6541 30.6074C58.6541 30.423 58.5782 30.2061 58.4155 29.9892L53.6867 23.0803C52.678 21.6703 52.0381 21.3341 50.5956 21.269V28.4382C50.5956 30.7267 51.3439 31.3883 53.3071 31.3883V32.256C52.4394 32.2126 50.4763 32.0933 48.7517 32.0933C46.8645 32.0933 44.717 32.2126 43.7734 32.256V31.3883C46.0402 31.3883 46.9079 30.7267 46.9079 28.4382V4.94577C46.9079 2.47289 46.1596 1.33406 43.7734 1.33406V0.466377C44.6411 0.542299 45.4979 0.585683 46.3222 0.585683C47.9275 0.585683 49.4134 0.422994 50.5956 0V20.423C52.2225 20.2061 53.1878 19.6963 54.1314 18.7202L57.1791 15.564C58.101 14.5987 58.4806 13.8612 58.4806 13.2972C58.4806 12.2885 57.1791 11.8872 55.4437 11.8872V11.0629C56.8645 11.1388 58.9036 11.2256 60.0858 11.2256C61.4524 11.2256 62.8407 11.1497 63.665 11.0629V11.8872C62.3201 12.0065 61.1162 12.6356 59.9665 13.8178L54.9665 19.0781L62.396 29.2408Z" fill="#22333B"/>
<path d="M72.0604 28.4382C72.0604 30.7267 72.9281 31.3883 75.1949 31.3883V32.256C74.2513 32.2126 72.1038 32.0933 70.2166 32.0933C68.3294 32.0933 66.1819 32.2126 65.2383 32.256V31.3883C67.5051 31.3883 68.3728 30.7267 68.3728 28.4382V4.94577C68.3728 2.47289 67.6244 1.33406 65.2383 1.33406V0.466377C66.106 0.542299 66.9628 0.585683 67.7871 0.585683C69.3923 0.585683 70.8782 0.422994 72.0604 0V28.4382Z" fill="#22333B"/>
<path d="M96.4225 11.063V11.8873C95.403 12.0066 94.5353 12.6682 93.7544 14.7832L87.0082 32.4621L85.5982 36.0413C85.0559 37.4513 84.492 38.3515 83.8303 38.9372C82.9301 39.7615 81.5961 40.0001 80.6199 40.0001C79.0581 40.0001 77.8325 39.1324 77.8325 37.5272C77.8325 36.2257 78.6568 35.358 80.0234 35.358C81.1731 35.358 82.1167 35.9979 82.1167 37.2886C82.1167 38.2322 81.5744 38.8179 81.0104 39.1324C81.0863 39.1758 81.1731 39.1758 81.249 39.1758C82.7349 39.1758 83.8846 38.2322 84.7414 35.9654L86.2056 32.2127L78.7327 14.2517C77.6698 12.1042 76.6069 11.9415 75.9453 11.9415V11.0738C77.1275 11.2365 78.4182 11.3341 79.98 11.3341C81.6503 11.3341 83.6785 11.1931 85.3271 11.0738V11.9415C83.7761 11.9415 82.4529 11.9415 82.4529 13.3623C82.4529 13.8396 82.6156 14.512 82.9735 15.3905L87.9301 27.679L92.4746 15.7701C92.7566 15.0109 92.9193 14.3819 92.9193 13.8829C92.9193 12.5814 91.9323 12.0391 89.8499 11.8981V11.063C91.2924 11.1389 92.0408 11.1823 93.3097 11.1823C94.5787 11.1823 95.5657 11.1498 96.4225 11.063Z" fill="#22333B"/>
<path d="M36.7684 6.05191C38.2001 6.05191 39.404 4.85885 39.404 3.41634C39.404 1.98467 38.2001 0.780762 36.7684 0.780762C35.315 0.780762 34.1328 1.99551 34.1328 3.41634C34.1328 4.8697 35.3259 6.05191 36.7684 6.05191Z" fill="#C6AC8F"/>
</svg>
