<svg width="19" height="19" viewBox="0 0 19 19" fill="none" xmlns="http://www.w3.org/2000/svg">
<path d="M13.9447 12.2837C15.0945 10.7147 15.6095 8.76932 15.3867 6.83686C15.1638 4.90439 14.2195 3.12733 12.7427 1.86121C11.2658 0.595085 9.36539 -0.0667294 7.42156 0.00817C5.47772 0.0830694 3.63385 0.889159 2.25882 2.26517C0.883796 3.64118 0.0790262 5.48563 0.00551776 7.42952C-0.0679907 9.37341 0.595183 11.2734 1.86236 12.7493C3.12954 14.2252 4.90728 15.1683 6.8399 15.3897C8.77253 15.6112 10.7175 15.0948 12.2858 13.9439H12.2846C12.3202 13.9914 12.3582 14.0365 12.4009 14.0804L16.9728 18.6523C17.1955 18.8751 17.4975 19.0004 17.8126 19.0005C18.1276 19.0006 18.4297 18.8756 18.6525 18.6529C18.8754 18.4302 19.0006 18.1282 19.0007 17.8132C19.0008 17.4982 18.8758 17.196 18.6531 16.9732L14.0813 12.4013C14.0388 12.3583 13.9931 12.3186 13.9447 12.2826V12.2837ZM14.2511 7.71899C14.2511 8.57669 14.0821 9.42598 13.7539 10.2184C13.4257 11.0108 12.9446 11.7308 12.3381 12.3373C11.7316 12.9438 11.0116 13.4249 10.2192 13.7531C9.42681 14.0813 8.57751 14.2502 7.71982 14.2502C6.86212 14.2502 6.01282 14.0813 5.22042 13.7531C4.42801 13.4249 3.70801 12.9438 3.10152 12.3373C2.49504 11.7308 2.01395 11.0108 1.68573 10.2184C1.3575 9.42598 1.18857 8.57669 1.18857 7.71899C1.18857 5.9868 1.87668 4.32555 3.10153 3.1007C4.32637 1.87585 5.98762 1.18774 7.71982 1.18774C9.45201 1.18774 11.1133 1.87585 12.3381 3.1007C13.563 4.32555 14.2511 5.9868 14.2511 7.71899Z" fill="black"/>
</svg>
