<svg width="1440" height="44" viewBox="0 0 1440 44" fill="none" xmlns="http://www.w3.org/2000/svg">
<rect width="1440" height="44" fill="#EAE0D5"/>
<path d="M177.296 17.936V16.64H171.216V28H177.296V26.704H172.576V22.768H176.224V21.472H172.576V17.936H177.296ZM183.609 19.744C182.217 19.744 181.161 20.448 180.425 21.312L180.361 19.904H179.065V28H180.441V23.872C180.441 22.72 181.209 21.04 183.129 21.04C184.377 21.04 185.241 21.808 185.241 23.84V28H186.617V23.264C186.617 20.976 185.481 19.744 183.609 19.744ZM192.23 19.904H190.55V17.504H189.19V19.904H188.038V21.2H189.19V28H190.55V21.2H192.23V19.904ZM201.177 24.032C201.177 21.744 199.609 19.744 197.129 19.744C194.729 19.744 193.081 21.632 193.081 23.904C193.081 26.352 194.809 28.16 197.257 28.16C199.385 28.16 200.633 26.752 200.953 25.648L199.737 25.488C199.385 26.208 198.585 26.928 197.257 26.928C195.593 26.928 194.505 25.856 194.457 24.384H201.177V24.032ZM197.129 20.976C198.713 20.976 199.721 22.128 199.801 23.392H194.457C194.505 22.064 195.609 20.976 197.129 20.976ZM206 19.744C205.248 19.744 204.624 20.24 204.128 20.928L204.064 19.904H202.768V28H204.144V23.968C204.144 22.448 204.672 21.04 205.92 21.04C206.304 21.04 206.624 21.184 206.784 21.296L207.024 20.096C206.848 19.936 206.496 19.744 206 19.744ZM216.523 16.64H212.779V28H214.139V24.112H216.523C218.731 24.112 220.539 22.816 220.539 20.368C220.539 17.936 218.731 16.64 216.523 16.64ZM216.523 22.8H214.139V17.936H216.523C218.043 17.936 219.179 18.72 219.179 20.368C219.179 22.016 218.043 22.8 216.523 22.8ZM222.495 18.56C222.943 18.56 223.279 18.208 223.279 17.776C223.279 17.328 222.943 16.992 222.495 16.992C222.063 16.992 221.711 17.328 221.711 17.776C221.711 18.208 222.063 18.56 222.495 18.56ZM223.183 19.904H221.807V28H223.183V19.904ZM229.843 19.744C228.451 19.744 227.395 20.448 226.659 21.312L226.595 19.904H225.299V28H226.675V23.872C226.675 22.72 227.443 21.04 229.363 21.04C230.611 21.04 231.475 21.808 231.475 23.84V28H232.851V23.264C232.851 20.976 231.715 19.744 229.843 19.744ZM240.957 22.048V20.72C240.333 20.112 239.469 19.744 238.429 19.744C236.061 19.744 234.237 21.664 234.237 23.936C234.237 26.256 236.061 28.16 238.429 28.16C239.469 28.16 240.333 27.792 240.957 27.184V25.84C240.285 26.512 239.549 26.864 238.637 26.864C237.085 26.864 235.677 25.632 235.677 23.936C235.677 22.272 237.085 21.04 238.637 21.04C239.549 21.04 240.285 21.392 240.957 22.048ZM246.603 28.16C249.067 28.16 250.891 26.272 250.891 23.936C250.891 21.632 249.067 19.744 246.603 19.744C244.155 19.744 242.299 21.632 242.299 23.936C242.299 26.272 244.155 28.16 246.603 28.16ZM246.603 26.864C244.955 26.864 243.675 25.536 243.675 23.936C243.675 22.368 244.955 21.04 246.603 21.04C248.267 21.04 249.515 22.368 249.515 23.936C249.515 25.536 248.267 26.864 246.603 26.864ZM252.065 23.936C252.065 26.272 253.841 28.16 256.161 28.16C257.681 28.16 258.913 27.296 259.425 26.16L259.489 28H260.801V16H259.425V21.744C258.913 20.608 257.681 19.744 256.161 19.744C253.841 19.744 252.065 21.632 252.065 23.936ZM253.441 23.936C253.441 22.368 254.721 21.04 256.369 21.04C258.033 21.04 259.281 22.368 259.281 23.936C259.281 25.536 258.033 26.864 256.369 26.864C254.721 26.864 253.441 25.536 253.441 23.936ZM270.739 24.032C270.739 21.744 269.171 19.744 266.691 19.744C264.291 19.744 262.643 21.632 262.643 23.904C262.643 26.352 264.371 28.16 266.819 28.16C268.947 28.16 270.195 26.752 270.515 25.648L269.299 25.488C268.947 26.208 268.147 26.928 266.819 26.928C265.155 26.928 264.067 25.856 264.019 24.384H270.739V24.032ZM266.691 20.976C268.275 20.976 269.283 22.128 269.363 23.392H264.019C264.067 22.064 265.171 20.976 266.691 20.976Z" fill="#22333B"/>
<path d="M1202.17 28.16C1205.42 28.16 1207.91 25.536 1207.91 22.32C1207.91 19.104 1205.42 16.48 1202.17 16.48C1198.94 16.48 1196.44 19.104 1196.44 22.32C1196.44 25.536 1198.94 28.16 1202.17 28.16ZM1202.17 26.864C1199.7 26.864 1197.82 24.8 1197.82 22.32C1197.82 19.84 1199.7 17.776 1202.17 17.776C1204.65 17.776 1206.54 19.84 1206.54 22.32C1206.54 24.8 1204.65 26.864 1202.17 26.864ZM1212.55 19.744C1211.8 19.744 1211.17 20.24 1210.68 20.928L1210.61 19.904H1209.32V28H1210.69V23.968C1210.69 22.448 1211.22 21.04 1212.47 21.04C1212.85 21.04 1213.17 21.184 1213.33 21.296L1213.57 20.096C1213.4 19.936 1213.04 19.744 1212.55 19.744ZM1214.1 23.936C1214.1 26.272 1215.87 28.16 1218.19 28.16C1219.71 28.16 1220.94 27.296 1221.46 26.16L1221.52 28H1222.83V16H1221.46V21.744C1220.94 20.608 1219.71 19.744 1218.19 19.744C1215.87 19.744 1214.1 21.632 1214.1 23.936ZM1215.47 23.936C1215.47 22.368 1216.75 21.04 1218.4 21.04C1220.06 21.04 1221.31 22.368 1221.31 23.936C1221.31 25.536 1220.06 26.864 1218.4 26.864C1216.75 26.864 1215.47 25.536 1215.47 23.936ZM1232.77 24.032C1232.77 21.744 1231.2 19.744 1228.72 19.744C1226.32 19.744 1224.67 21.632 1224.67 23.904C1224.67 26.352 1226.4 28.16 1228.85 28.16C1230.98 28.16 1232.23 26.752 1232.55 25.648L1231.33 25.488C1230.98 26.208 1230.18 26.928 1228.85 26.928C1227.19 26.928 1226.1 25.856 1226.05 24.384H1232.77V24.032ZM1228.72 20.976C1230.31 20.976 1231.31 22.128 1231.39 23.392H1226.05C1226.1 22.064 1227.2 20.976 1228.72 20.976ZM1237.59 19.744C1236.84 19.744 1236.22 20.24 1235.72 20.928L1235.66 19.904H1234.36V28H1235.74V23.968C1235.74 22.448 1236.27 21.04 1237.51 21.04C1237.9 21.04 1238.22 21.184 1238.38 21.296L1238.62 20.096C1238.44 19.936 1238.09 19.744 1237.59 19.744ZM1251.22 16.64H1244.28V17.936H1247.06V28H1248.44V17.936H1251.22V16.64ZM1255.31 19.744C1254.56 19.744 1253.94 20.24 1253.44 20.928L1253.38 19.904H1252.08V28H1253.46V23.968C1253.46 22.448 1253.98 21.04 1255.23 21.04C1255.62 21.04 1255.94 21.184 1256.1 21.296L1256.34 20.096C1256.16 19.936 1255.81 19.744 1255.31 19.744ZM1256.86 23.936C1256.86 26.272 1258.64 28.16 1260.96 28.16C1262.48 28.16 1263.71 27.296 1264.22 26.16L1264.29 28H1265.6V19.904H1264.29L1264.22 21.744C1263.71 20.608 1262.48 19.744 1260.96 19.744C1258.64 19.744 1256.86 21.632 1256.86 23.936ZM1258.24 23.936C1258.24 22.368 1259.52 21.04 1261.17 21.04C1262.83 21.04 1264.08 22.368 1264.08 23.936C1264.08 25.536 1262.83 26.864 1261.17 26.864C1259.52 26.864 1258.24 25.536 1258.24 23.936ZM1273.74 22.048V20.72C1273.11 20.112 1272.25 19.744 1271.21 19.744C1268.84 19.744 1267.02 21.664 1267.02 23.936C1267.02 26.256 1268.84 28.16 1271.21 28.16C1272.25 28.16 1273.11 27.792 1273.74 27.184V25.84C1273.07 26.512 1272.33 26.864 1271.42 26.864C1269.87 26.864 1268.46 25.632 1268.46 23.936C1268.46 22.272 1269.87 21.04 1271.42 21.04C1272.33 21.04 1273.07 21.392 1273.74 22.048ZM1283.05 19.904H1281.13L1277.02 23.792V16H1275.64V28H1277.02V25.616L1278.36 24.352L1281.34 28H1283.05L1279.34 23.424L1283.05 19.904ZM1285.06 18.56C1285.51 18.56 1285.84 18.208 1285.84 17.776C1285.84 17.328 1285.51 16.992 1285.06 16.992C1284.63 16.992 1284.27 17.328 1284.27 17.776C1284.27 18.208 1284.63 18.56 1285.06 18.56ZM1285.75 19.904H1284.37V28H1285.75V19.904ZM1292.41 19.744C1291.01 19.744 1289.96 20.448 1289.22 21.312L1289.16 19.904H1287.86V28H1289.24V23.872C1289.24 22.72 1290.01 21.04 1291.93 21.04C1293.17 21.04 1294.04 21.808 1294.04 23.84V28H1295.41V23.264C1295.41 20.976 1294.28 19.744 1292.41 19.744ZM1300.38 26.688C1299.4 26.688 1298.81 26.56 1298.81 26.144C1298.81 25.936 1298.98 25.76 1299.27 25.632C1299.64 25.76 1300.06 25.824 1300.49 25.824C1302.38 25.824 1303.83 24.512 1303.83 22.784C1303.83 22.128 1303.62 21.536 1303.26 21.056L1304.2 21.136V19.904L1302.09 20.096C1301.61 19.872 1301.06 19.744 1300.49 19.744C1298.58 19.744 1297.14 21.04 1297.14 22.784C1297.14 23.808 1297.64 24.672 1298.44 25.216C1297.98 25.44 1297.51 25.824 1297.51 26.368C1297.51 26.816 1297.82 27.168 1298.25 27.408C1297.66 27.776 1297.14 28.368 1297.14 29.264C1297.14 30.928 1298.78 31.84 1300.68 31.84C1302.58 31.84 1304.22 30.928 1304.22 29.264C1304.22 27.696 1302.78 26.688 1300.38 26.688ZM1300.49 20.896C1301.62 20.896 1302.52 21.696 1302.52 22.784C1302.52 23.856 1301.62 24.656 1300.49 24.656C1299.37 24.656 1298.44 23.856 1298.44 22.784C1298.44 21.696 1299.37 20.896 1300.49 20.896ZM1300.68 30.688C1299.35 30.688 1298.44 30.176 1298.44 29.232C1298.44 28.608 1299.05 28.048 1299.54 27.824C1299.7 27.84 1299.85 27.856 1300.01 27.856C1301.7 27.856 1302.92 28.224 1302.92 29.28C1302.92 30.208 1301.99 30.688 1300.68 30.688Z" fill="#22333B"/>
<path opacity="0.7" d="M296.464 19.008V17.616C295.808 17.056 294.704 16.48 293.104 16.48C289.92 16.48 287.44 19.072 287.44 22.32C287.44 25.568 289.92 28.16 293.104 28.16C294.704 28.16 295.808 27.584 296.464 27.024V25.632C295.872 26.192 294.816 26.864 293.264 26.864C290.816 26.864 288.816 24.896 288.816 22.32C288.816 19.744 290.816 17.776 293.264 17.776C294.816 17.776 295.856 18.448 296.464 19.008ZM302.875 19.744C301.483 19.744 300.443 20.432 299.707 21.312V16H298.331V28H299.707V23.872C299.707 22.72 300.475 21.04 302.395 21.04C303.643 21.04 304.507 21.808 304.507 23.84V28H305.883V23.264C305.883 20.976 304.747 19.744 302.875 19.744ZM307.268 23.936C307.268 26.272 309.044 28.16 311.364 28.16C312.884 28.16 314.116 27.296 314.628 26.16L314.692 28H316.004V19.904H314.692L314.628 21.744C314.116 20.608 312.884 19.744 311.364 19.744C309.044 19.744 307.268 21.632 307.268 23.936ZM308.644 23.936C308.644 22.368 309.924 21.04 311.572 21.04C313.236 21.04 314.484 22.368 314.484 23.936C314.484 25.536 313.236 26.864 311.572 26.864C309.924 26.864 308.644 25.536 308.644 23.936ZM322.547 19.744C321.155 19.744 320.099 20.448 319.363 21.312L319.299 19.904H318.003V28H319.379V23.872C319.379 22.72 320.147 21.04 322.067 21.04C323.315 21.04 324.179 21.808 324.179 23.84V28H325.555V23.264C325.555 20.976 324.419 19.744 322.547 19.744ZM330.516 26.688C329.54 26.688 328.948 26.56 328.948 26.144C328.948 25.936 329.124 25.76 329.412 25.632C329.78 25.76 330.196 25.824 330.628 25.824C332.516 25.824 333.972 24.512 333.972 22.784C333.972 22.128 333.764 21.536 333.396 21.056L334.34 21.136V19.904L332.228 20.096C331.748 19.872 331.204 19.744 330.628 19.744C328.724 19.744 327.284 21.04 327.284 22.784C327.284 23.808 327.78 24.672 328.58 25.216C328.116 25.44 327.652 25.824 327.652 26.368C327.652 26.816 327.956 27.168 328.388 27.408C327.796 27.776 327.284 28.368 327.284 29.264C327.284 30.928 328.916 31.84 330.82 31.84C332.724 31.84 334.356 30.928 334.356 29.264C334.356 27.696 332.916 26.688 330.516 26.688ZM330.628 20.896C331.764 20.896 332.66 21.696 332.66 22.784C332.66 23.856 331.764 24.656 330.628 24.656C329.508 24.656 328.58 23.856 328.58 22.784C328.58 21.696 329.508 20.896 330.628 20.896ZM330.82 30.688C329.492 30.688 328.58 30.176 328.58 29.232C328.58 28.608 329.188 28.048 329.684 27.824C329.844 27.84 329.988 27.856 330.148 27.856C331.844 27.856 333.06 28.224 333.06 29.28C333.06 30.208 332.132 30.688 330.82 30.688ZM343.614 24.032C343.614 21.744 342.046 19.744 339.566 19.744C337.166 19.744 335.518 21.632 335.518 23.904C335.518 26.352 337.246 28.16 339.694 28.16C341.822 28.16 343.07 26.752 343.39 25.648L342.174 25.488C341.822 26.208 341.022 26.928 339.694 26.928C338.03 26.928 336.942 25.856 336.894 24.384H343.614V24.032ZM339.566 20.976C341.15 20.976 342.158 22.128 342.238 23.392H336.894C336.942 22.064 338.046 20.976 339.566 20.976ZM353.757 16.64H350.013V28H351.373V24.112H353.757C355.965 24.112 357.773 22.816 357.773 20.368C357.773 17.936 355.965 16.64 353.757 16.64ZM353.757 22.8H351.373V17.936H353.757C355.277 17.936 356.413 18.72 356.413 20.368C356.413 22.016 355.277 22.8 353.757 22.8ZM359.729 18.56C360.177 18.56 360.513 18.208 360.513 17.776C360.513 17.328 360.177 16.992 359.729 16.992C359.297 16.992 358.945 17.328 358.945 17.776C358.945 18.208 359.297 18.56 359.729 18.56ZM360.417 19.904H359.041V28H360.417V19.904ZM367.078 19.744C365.686 19.744 364.63 20.448 363.894 21.312L363.83 19.904H362.534V28H363.91V23.872C363.91 22.72 364.678 21.04 366.598 21.04C367.846 21.04 368.71 21.808 368.71 23.84V28H370.086V23.264C370.086 20.976 368.95 19.744 367.078 19.744ZM378.191 22.048V20.72C377.567 20.112 376.703 19.744 375.663 19.744C373.295 19.744 371.471 21.664 371.471 23.936C371.471 26.256 373.295 28.16 375.663 28.16C376.703 28.16 377.567 27.792 378.191 27.184V25.84C377.519 26.512 376.783 26.864 375.871 26.864C374.319 26.864 372.911 25.632 372.911 23.936C372.911 22.272 374.319 21.04 375.871 21.04C376.783 21.04 377.519 21.392 378.191 22.048ZM383.838 28.16C386.302 28.16 388.126 26.272 388.126 23.936C388.126 21.632 386.302 19.744 383.838 19.744C381.39 19.744 379.534 21.632 379.534 23.936C379.534 26.272 381.39 28.16 383.838 28.16ZM383.838 26.864C382.19 26.864 380.91 25.536 380.91 23.936C380.91 22.368 382.19 21.04 383.838 21.04C385.502 21.04 386.75 22.368 386.75 23.936C386.75 25.536 385.502 26.864 383.838 26.864ZM389.299 23.936C389.299 26.272 391.075 28.16 393.395 28.16C394.915 28.16 396.147 27.296 396.659 26.16L396.723 28H398.035V16H396.659V21.744C396.147 20.608 394.915 19.744 393.395 19.744C391.075 19.744 389.299 21.632 389.299 23.936ZM390.675 23.936C390.675 22.368 391.955 21.04 393.603 21.04C395.267 21.04 396.515 22.368 396.515 23.936C396.515 25.536 395.267 26.864 393.603 26.864C391.955 26.864 390.675 25.536 390.675 23.936ZM407.974 24.032C407.974 21.744 406.406 19.744 403.926 19.744C401.526 19.744 399.878 21.632 399.878 23.904C399.878 26.352 401.606 28.16 404.054 28.16C406.182 28.16 407.43 26.752 407.75 25.648L406.534 25.488C406.182 26.208 405.382 26.928 404.054 26.928C402.39 26.928 401.302 25.856 401.254 24.384H407.974V24.032ZM403.926 20.976C405.51 20.976 406.517 22.128 406.598 23.392H401.254C401.302 22.064 402.406 20.976 403.926 20.976Z" fill="#22333B"/>
<path d="M1179.33 20.6667C1179.33 25.6667 1172.67 30.6667 1172.67 30.6667C1172.67 30.6667 1166 25.6667 1166 20.6667C1166 18.8986 1166.7 17.2029 1167.95 15.9526C1169.2 14.7024 1170.9 14 1172.67 14C1174.43 14 1176.13 14.7024 1177.38 15.9526C1178.63 17.2029 1179.33 18.8986 1179.33 20.6667Z" stroke="#22333B" stroke-linecap="round" stroke-linejoin="round"/>
<path d="M1172.67 23.1665C1174.05 23.1665 1175.17 22.0472 1175.17 20.6665C1175.17 19.2858 1174.05 18.1665 1172.67 18.1665C1171.29 18.1665 1170.17 19.2858 1170.17 20.6665C1170.17 22.0472 1171.29 23.1665 1172.67 23.1665Z" stroke="#22333B" stroke-linecap="round" stroke-linejoin="round"/>
<path d="M149.333 27H153V17H142V27H144.75" stroke="#22333B" stroke-linecap="round" stroke-linejoin="round"/>
<path d="M158.25 27H160V24.0775C160 23.6177 159.91 23.1624 159.734 22.7375C159.559 22.3126 159.301 21.9265 158.976 21.6012L157.375 20H153" stroke="#22333B" stroke-linecap="round" stroke-linejoin="round"/>
<path d="M162 27H163" stroke="#22333B" stroke-linecap="round" stroke-linejoin="round"/>
<path d="M147 30C148.105 30 149 29.1046 149 28C149 26.8954 148.105 26 147 26C145.895 26 145 26.8954 145 28C145 29.1046 145.895 30 147 30Z" stroke="#22333B" stroke-linecap="round" stroke-linejoin="round"/>
<path d="M156 30C157.105 30 158 29.1046 158 28C158 26.8954 157.105 26 156 26C154.895 26 154 26.8954 154 28C154 29.1046 154.895 30 156 30Z" stroke="#22333B" stroke-linecap="round" stroke-linejoin="round"/>
</svg>
