<svg width="16" height="13" viewBox="0 0 16 13" fill="none" xmlns="http://www.w3.org/2000/svg">
<path d="M6.63934 9.45902H9.45902V1H1V9.45902H3.11475" stroke="#10A728" stroke-width="1.05738" stroke-linecap="round" stroke-linejoin="round"/>
<path d="M13.6904 9.45892H15.1003V7.1045C15.1006 6.7341 15.0279 6.36728 14.8864 6.02499C14.7449 5.68269 14.5373 5.37163 14.2755 5.10958L12.9855 3.81958H9.46094" stroke="#10A728" stroke-width="1.05738" stroke-linecap="round" stroke-linejoin="round"/>
<path d="M9.46094 9.45898H10.1659" stroke="#10A728" stroke-width="1.05738" stroke-linecap="round" stroke-linejoin="round"/>
<path d="M4.87558 11.5737C5.84887 11.5737 6.63787 10.7847 6.63787 9.81137C6.63787 8.83808 5.84887 8.04907 4.87558 8.04907C3.90229 8.04907 3.11328 8.83808 3.11328 9.81137C3.11328 10.7847 3.90229 11.5737 4.87558 11.5737Z" stroke="#10A728" stroke-width="1.05738" stroke-linecap="round" stroke-linejoin="round"/>
<path d="M11.9264 11.5737C12.8996 11.5737 13.6887 10.7847 13.6887 9.81137C13.6887 8.83808 12.8996 8.04907 11.9264 8.04907C10.9531 8.04907 10.1641 8.83808 10.1641 9.81137C10.1641 10.7847 10.9531 11.5737 11.9264 11.5737Z" stroke="#10A728" stroke-width="1.05738" stroke-linecap="round" stroke-linejoin="round"/>
</svg>
